<svg width="40" height="30" viewBox="0 0 40 30" fill="none" xmlns="http://www.w3.org/2000/svg">
<path d="M2.5 11.9544C2.5 8.60254 5.48119 6.03296 8.84068 6.40548C16.5045 7.25527 22.6984 7.28813 31.0412 6.38974C34.4357 6.02421 37.425 8.66776 37.3559 12.0539L37.1387 22.6996C37.0713 26.0005 34.1229 28.4952 30.824 28.1033C22.7029 27.1385 16.6046 26.9654 8.78579 27.6997C5.44181 28.0137 2.5 25.4493 2.5 22.1226V11.9544Z" fill="black" stroke="black"/>
<rect y="13" width="3" height="6" rx="1" fill="black"/>
<rect x="37" y="13" width="3" height="6" rx="1" fill="black"/>
<rect x="15" width="10" height="8" rx="1" fill="black"/>
<path fill-rule="evenodd" clip-rule="evenodd" d="M6.28795 13.8674C5.75202 15.8152 5.82634 18.7231 7.82515 21.097C9.78874 23.4292 13.5135 25.133 20.0039 25.0096C26.4944 25.133 30.2191 23.4292 32.1827 21.097C34.1815 18.7231 34.2558 15.8152 33.7199 13.8674L32.7557 14.1327C33.2286 15.8514 33.1516 18.3936 31.4177 20.453C29.7548 22.4281 26.4753 24.0679 20.3748 24.0147L20.3743 24.0002C20.2497 24.004 20.1263 24.007 20.0039 24.0094C19.8815 24.007 19.7581 24.004 19.6335 24.0002L19.6331 24.0147C13.5326 24.0679 10.2531 22.4281 8.59011 20.453C6.85623 18.3936 6.77922 15.8514 7.25212 14.1327L6.28795 13.8674Z" fill="white"/>
<circle cx="12" cy="16" r="5.5" fill="url(#paint0_linear_2_200)" stroke="white"/>
<circle cx="28" cy="16" r="5.5" fill="url(#paint1_linear_2_200)" stroke="white"/>
<defs>
<linearGradient id="paint0_linear_2_200" x1="8" y1="12" x2="12" y2="22" gradientUnits="userSpaceOnUse">
<stop stop-color="#B462F4"/>
<stop offset="1" stop-color="#FFDB5C"/>
</linearGradient>
<linearGradient id="paint1_linear_2_200" x1="22.5" y1="15.5" x2="28" y2="22" gradientUnits="userSpaceOnUse">
<stop stop-color="#0057FF"/>
<stop offset="1" stop-color="#22FFCA"/>
</linearGradient>
</defs>
</svg>
