<svg width="70" height="70" viewBox="0 0 70 70" fill="none" xmlns="http://www.w3.org/2000/svg">
<path id="Vector" d="M62.0182 0H7.5178C5.54675 0 3.65643 0.790177 2.26268 2.1967C0.868935 3.60322 0.0859375 5.51088 0.0859375 7.5L0.0859375 62.5C0.0859375 64.4891 0.868935 66.3968 2.26268 67.8033C3.65643 69.2098 5.54675 70 7.5178 70H28.7683V46.2016H19.014V35H28.7683V26.4625C28.7683 16.7516 34.497 11.3875 43.2713 11.3875C47.4734 11.3875 51.8675 12.1438 51.8675 12.1438V21.675H47.0259C42.2556 21.675 40.7677 24.6625 40.7677 27.7266V35H51.4169L49.7138 46.2016H40.7677V70H62.0182C63.9892 70 65.8795 69.2098 67.2733 67.8033C68.667 66.3968 69.45 64.4891 69.45 62.5V7.5C69.45 5.51088 68.667 3.60322 67.2733 2.1967C65.8795 0.790177 63.9892 0 62.0182 0Z" fill="white"/>
</svg>
