<svg width="70" height="70" viewBox="0 0 70 70" fill="none" xmlns="http://www.w3.org/2000/svg">
<path id="Vector" d="M34.7113 17.0534C24.8695 17.0534 16.9312 25.0663 16.9312 35.0005C16.9312 44.9347 24.8695 52.9476 34.7113 52.9476C44.553 52.9476 52.4914 44.9347 52.4914 35.0005C52.4914 25.0663 44.553 17.0534 34.7113 17.0534ZM34.7113 46.6685C28.3513 46.6685 23.1519 41.4358 23.1519 35.0005C23.1519 28.5651 28.3358 23.3325 34.7113 23.3325C41.0867 23.3325 46.2706 28.5651 46.2706 35.0005C46.2706 41.4358 41.0712 46.6685 34.7113 46.6685ZM57.3658 16.3192C57.3658 18.6466 55.5089 20.5053 53.2187 20.5053C50.913 20.5053 49.0715 18.631 49.0715 16.3192C49.0715 14.0075 50.9285 12.1331 53.2187 12.1331C55.5089 12.1331 57.3658 14.0075 57.3658 16.3192ZM69.1418 20.5678C68.8788 14.9603 67.6099 9.99324 63.5401 5.90086C59.4858 1.80848 54.5649 0.527656 49.0096 0.2465C43.2841 -0.0815155 26.123 -0.0815155 20.3974 0.2465C14.8576 0.512036 9.93672 1.79286 5.86695 5.88524C1.79717 9.97762 0.543746 14.9447 0.265206 20.5522C-0.0597563 26.3315 -0.0597563 43.6538 0.265206 49.4332C0.528271 55.0407 1.79717 60.0077 5.86695 64.1001C9.93672 68.1925 14.8421 69.4733 20.3974 69.7545C26.123 70.0825 43.2841 70.0825 49.0096 69.7545C54.5649 69.4889 59.4858 68.2081 63.5401 64.1001C67.5944 60.0077 68.8633 55.0407 69.1418 49.4332C69.4668 43.6538 69.4668 26.3471 69.1418 20.5678ZM61.7451 55.6342C60.5381 58.6957 58.2014 61.0543 55.153 62.2882C50.588 64.1157 39.7559 63.694 34.7113 63.694C29.6666 63.694 18.819 64.1001 14.2696 62.2882C11.2366 61.0699 8.89993 58.7113 7.67745 55.6342C5.86695 51.0264 6.28475 40.0925 6.28475 35.0005C6.28475 29.9084 5.88242 18.959 7.67745 14.3668C8.88446 11.3053 11.2211 8.94671 14.2696 7.71275C18.8345 5.88524 29.6666 6.30697 34.7113 6.30697C39.7559 6.30697 50.6035 5.90086 55.153 7.71275C58.186 8.93109 60.5226 11.2897 61.7451 14.3668C63.5556 18.9746 63.1378 29.9084 63.1378 35.0005C63.1378 40.0925 63.5556 51.042 61.7451 55.6342Z" fill="white"/>
</svg>
