<svg width="70" height="70" viewBox="0 0 70 70" fill="none" xmlns="http://www.w3.org/2000/svg">
<path id="Vector" d="M67.9336 4.74687C68.4101 2.0125 67.9336 0 65.6416 0H58.0571C56.1256 0 55.2371 1.72812 54.7607 3.65312C54.7607 3.65312 50.8977 19.6437 45.4379 30.0125C43.6738 33.0094 42.8626 33.9719 41.8968 33.9719C41.4204 33.9719 40.6864 33.0094 40.6864 30.275V4.74687C40.6864 1.46562 40.1456 0 38.5489 0H26.625C25.4146 0 24.6935 1.53125 24.6935 2.95312C24.6935 6.05937 27.4234 6.78125 27.7066 15.5312V34.5187C27.7066 38.675 27.2688 39.4406 26.3031 39.4406C23.7277 39.4406 17.4696 23.3844 13.7611 5.00938C13.0143 1.44375 12.2803 0 10.3359 0H2.75149C0.5882 0 0.150391 1.72812 0.150391 3.65312C0.150391 7.06562 2.72574 24.0188 12.1386 46.4188C18.4096 61.7094 27.2431 70 35.2782 70C40.107 70 40.6993 68.1625 40.6993 64.9906C40.6993 50.3781 40.2615 49 42.6823 49C43.8026 49 45.7341 49.9625 50.241 57.3344C55.3917 66.0844 56.2415 70 59.1259 70H66.7103C68.8736 70 69.9682 68.1625 69.3372 64.5312C67.895 56.8969 58.1473 41.1906 57.7095 40.1406C56.5892 37.6906 56.9111 36.5969 57.7095 34.4094C57.7224 34.3875 66.9807 12.25 67.9336 4.74687Z" fill="white"/>
</svg>
